<svg width="16" height="16" viewBox="0 0 16 16" fill="none" xmlns="http://www.w3.org/2000/svg">
<g clip-path="url(#clip0_2_215)">
<path d="M6.55202 6.71203C6.32911 6.73036 6.12125 6.83187 5.96972 6.99637C5.81819 7.16088 5.73407 7.37636 5.73407 7.60003C5.73407 7.82369 5.81819 8.03917 5.96972 8.20368C6.12125 8.36819 6.32911 8.46969 6.55202 8.48803C6.66393 8.4834 6.77384 8.45674 6.87545 8.40959C6.97705 8.36244 7.06837 8.29572 7.14416 8.21324C7.21995 8.13076 7.27873 8.03414 7.31715 7.92892C7.35556 7.8237 7.37284 7.71194 7.36802 7.60003C7.37352 7.48796 7.3567 7.37591 7.31853 7.2704C7.28037 7.16489 7.22162 7.06801 7.1457 6.98539C7.06978 6.90278 6.97821 6.83606 6.87629 6.78914C6.77437 6.74221 6.66415 6.716 6.55202 6.71203ZM9.47202 6.71203C9.29324 6.69692 9.11406 6.73614 8.95795 6.82456C8.80183 6.91297 8.67604 7.04645 8.59704 7.20754C8.51804 7.36863 8.48951 7.54981 8.51519 7.72738C8.54086 7.90495 8.61955 8.07063 8.74095 8.20274C8.86234 8.33484 9.0208 8.42723 9.19557 8.46779C9.37033 8.50836 9.55328 8.49521 9.72046 8.43008C9.88763 8.36496 10.0313 8.25087 10.1325 8.10277C10.2338 7.95467 10.288 7.77944 10.288 7.60003C10.2928 7.48811 10.2756 7.37635 10.2371 7.27113C10.1987 7.16591 10.14 7.06929 10.0642 6.98681C9.98837 6.90433 9.89706 6.83761 9.79545 6.79046C9.69384 6.74331 9.58393 6.71665 9.47202 6.71203Z" fill="white"/>
<path d="M13.36 0H2.64C2.42411 0.000524649 2.21044 0.0435677 2.01118 0.126671C1.81192 0.209775 1.63098 0.331312 1.47869 0.484343C1.3264 0.637375 1.20575 0.818903 1.12361 1.01856C1.04148 1.21822 0.999479 1.43211 1 1.648V12.464C0.999479 12.6799 1.04148 12.8938 1.12361 13.0934C1.20575 13.2931 1.3264 13.4746 1.47869 13.6277C1.63098 13.7807 1.81192 13.9022 2.01118 13.9853C2.21044 14.0684 2.42411 14.1115 2.64 14.112H11.712L11.288 12.632L12.312 13.584L13.28 14.484L15 16V1.648C15.0005 1.43211 14.9585 1.21822 14.8764 1.01856C14.7943 0.818903 14.6736 0.637375 14.5213 0.484343C14.369 0.331312 14.1881 0.209775 13.9888 0.126671C13.7896 0.0435677 13.5759 0.000524649 13.36 0V0ZM10.272 10.448C10.272 10.448 9.984 10.1 9.74401 9.8C10.3239 9.6635 10.8368 9.32627 11.192 8.848C10.9041 9.03957 10.5955 9.19792 10.272 9.32C9.89984 9.47886 9.51061 9.59429 9.11201 9.664C8.42685 9.79024 7.72416 9.78753 7.04 9.656C6.63834 9.57741 6.2447 9.46226 5.864 9.312C5.54362 9.18857 5.23778 9.03029 4.952 8.84C5.29436 9.30824 5.78956 9.64215 6.35201 9.784C6.11201 10.084 5.816 10.448 5.816 10.448C5.34078 10.4608 4.86969 10.3566 4.44421 10.1446C4.01872 9.93255 3.65189 9.61916 3.376 9.232C3.40197 7.61017 3.79587 6.01541 4.528 4.568C5.17229 4.06199 5.95777 3.76848 6.776 3.728L6.856 3.828C6.08764 4.01915 5.37071 4.37693 4.756 4.876C4.756 4.876 4.932 4.776 5.228 4.644C5.80328 4.38289 6.41615 4.21415 7.044 4.144C7.08879 4.13473 7.13429 4.12938 7.18 4.128C7.7143 4.05448 8.25547 4.04508 8.792 4.1C9.63708 4.19651 10.4551 4.45741 11.2 4.868C10.6151 4.39357 9.93611 4.04864 9.208 3.856L9.32 3.728C10.1382 3.76848 10.9237 4.06199 11.568 4.568C12.3001 6.01541 12.694 7.61017 12.72 9.232C12.4419 9.61877 12.0735 9.93173 11.6468 10.1437C11.2202 10.3556 10.7482 10.4601 10.272 10.448Z" fill="white"/>
</g>
<defs>
<clipPath id="clip0_2_215">
<rect width="16" height="16" fill="white"/>
</clipPath>
</defs>
</svg>
