<svg width="24" height="22" viewBox="0 0 24 22" fill="none" xmlns="http://www.w3.org/2000/svg">
<path d="M12.746 0.463999L15.856 6.764L22.81 7.776C22.9636 7.79815 23.1079 7.86286 23.2266 7.96282C23.3454 8.06278 23.4337 8.19398 23.4817 8.34157C23.5297 8.48915 23.5354 8.64723 23.4981 8.79788C23.4609 8.94854 23.3822 9.08576 23.271 9.194L18.238 14.094L19.426 21.02C19.4522 21.173 19.4351 21.3302 19.3766 21.474C19.3181 21.6178 19.2206 21.7423 19.095 21.8335C18.9694 21.9248 18.8209 21.9791 18.6661 21.9903C18.5113 22.0015 18.3564 21.9692 18.219 21.897L12 18.632L5.78 21.9C5.64248 21.9719 5.48762 22.0039 5.33288 21.9925C5.17813 21.981 5.02966 21.9266 4.90418 21.8354C4.7787 21.7441 4.68121 21.6196 4.6227 21.4759C4.56418 21.3322 4.54697 21.175 4.573 21.022L5.761 14.1L0.727996 9.2C0.616784 9.09176 0.538105 8.95454 0.500868 8.80388C0.463632 8.65323 0.469327 8.49515 0.517308 8.34757C0.56529 8.19998 0.65364 8.06878 0.772352 7.96882C0.891064 7.86886 1.03539 7.80415 1.189 7.782L8.143 6.765L11.253 0.464999C11.3218 0.325826 11.4281 0.208647 11.56 0.126684C11.6918 0.0447202 11.8439 0.00123332 11.9992 0.00112934C12.1544 0.00102535 12.3066 0.0443084 12.4386 0.126095C12.5705 0.207882 12.677 0.324918 12.746 0.463999Z" fill="#F0B70D"/>
</svg>
