<svg width="38" height="26" viewBox="0 0 38 26" fill="none" xmlns="http://www.w3.org/2000/svg">
<path d="M28.5 0C25.3976 0 23.7602 1.27006 22.4456 2.29172L22.4417 2.29476C21.3601 3.13435 20.6456 3.68897 19 3.68897C17.3524 3.68897 16.6367 3.13301 15.5543 2.29172C14.2398 1.27006 12.6024 0 9.5 0V4.33951C7.85314 4.33951 7.13731 3.78408 6.05579 2.94491L6.04667 2.93782C4.73343 1.91718 3.10366 0.65054 0 0.65054V4.99005C1.64686 4.99005 2.36269 5.54547 3.44421 6.38464L3.44566 6.38577C4.76023 7.40744 6.3976 8.67901 9.5 8.67901V12.9992C7.8524 12.9992 7.13667 12.4448 6.05434 11.6035L6.04668 11.5976C4.73343 10.5769 3.10366 9.31028 0 9.31028V13.6498C1.6476 13.6498 2.36333 14.2057 3.44566 15.047C4.76023 16.0687 6.3976 17.3387 9.5 17.3387V21.6605C7.8524 21.6605 7.13667 21.1045 6.05434 20.2633L6.04913 20.2592C4.73546 19.2382 3.10559 17.9715 0 17.9715V22.311C1.6476 22.311 2.36333 22.8655 3.44566 23.7068C4.76023 24.7284 6.3976 26 9.5 26V21.6605C11.1476 21.6605 11.8619 22.2149 12.9457 23.0562C14.2602 24.0779 15.8976 25.3479 19 25.3479C22.1024 25.3479 23.7398 24.0779 25.0543 23.0562C26.1367 22.2149 26.8524 21.6605 28.5 21.6605C30.1476 21.6605 30.8618 22.2149 31.9442 23.0562C33.2587 24.0779 34.8976 25.3479 38 25.3479V21.0084C36.3524 21.0084 35.6367 20.454 34.5543 19.6127C33.2398 18.591 31.6024 17.3195 28.5 17.3195C25.3976 17.3195 23.7602 18.591 22.4456 19.6127C21.3619 20.454 20.6476 21.0084 19 21.0084C17.3524 21.0084 16.6367 20.454 15.5543 19.6127C14.2398 18.591 12.6024 17.3195 9.5 17.3195V12.9992C11.1444 12.9992 11.8591 13.553 12.9394 14.3901L12.9457 14.395C14.2602 15.4166 15.8976 16.6882 19 16.6882C22.1024 16.6882 23.7398 15.4166 25.0543 14.395L25.0558 14.3938C26.1373 13.5547 26.8531 12.9992 28.5 12.9992C30.1454 12.9992 30.8599 13.5537 31.9398 14.3916L31.9442 14.395C33.2587 15.4166 34.8976 16.6882 38 16.6882V12.3487C36.3531 12.3487 35.6373 11.7933 34.5558 10.9541L34.5543 10.953C33.2398 9.93131 31.6024 8.65974 28.5 8.65974C25.3976 8.65974 23.7602 9.93131 22.4456 10.953L22.4393 10.9579C21.3591 11.7949 20.6444 12.3487 19 12.3487C17.3531 12.3487 16.6373 11.7933 15.5558 10.9541L15.5543 10.953C14.2398 9.93131 12.6024 8.65974 9.5 8.65974V4.33951C11.1444 4.33951 11.8591 4.8933 12.9394 5.73041L12.9457 5.73523C14.2602 6.7569 15.8976 8.0284 19 8.0284C22.1024 8.0284 23.7398 6.7569 25.0543 5.73523L25.0558 5.7341C26.1373 4.89493 26.8531 4.33951 28.5 4.33951C30.1454 4.33951 30.8599 4.89392 31.9398 5.73183L31.9442 5.73523C33.2587 6.7569 34.8976 8.0284 38 8.0284V3.68897C36.3524 3.68897 35.6367 3.13301 34.5543 2.29172C33.2398 1.27006 31.6024 0 28.5 0Z" fill="white"/>
</svg>
